<svg width="50" height="50" fill="none" xmlns="http://www.w3.org/2000/svg"><path d="M37.5 32.813c-.781 0-1.563-.313-2.188-.938l-4.687-4.688c-.625-.625-.938-1.406-.938-2.187 0-.781.313-1.563.938-2.188l4.688-4.687c.624-.625 1.406-.938 2.187-.938.781 0 1.563.313 2.188.938l4.687 4.688c.625.625.938 1.406.938 2.187 0 .781-.313 1.563-.938 2.188l-4.688 4.687c-.624.625-1.406.938-2.187.938Zm0-12.5L32.812 25l4.688 4.688L42.188 25 37.5 20.312Zm-12.5 0c-.781 0-1.563-.313-2.188-.938l-4.687-4.688c-.625-.624-.938-1.406-.938-2.187 0-.781.313-1.563.938-2.188l4.688-4.687C23.438 5 24.218 4.687 25 4.687c.781 0 1.563.313 2.188.938l4.687 4.688c.625.624.938 1.406.938 2.187 0 .781-.313 1.563-.938 2.188l-4.688 4.687c-.625.625-1.406.938-2.187.938Zm0-12.5L20.312 12.5 25 17.188l4.688-4.688L25 7.812Zm0 37.5c-.781 0-1.563-.313-2.188-.938l-4.687-4.688c-.625-.624-.938-1.406-.938-2.187 0-.781.313-1.563.938-2.188l4.688-4.687c.625-.625 1.406-.938 2.187-.938.781 0 1.563.313 2.188.938l4.687 4.688c.625.624.938 1.406.938 2.187 0 .781-.313 1.563-.938 2.188l-4.688 4.687c-.625.625-1.406.938-2.187.938Zm0-12.5L20.312 37.5 25 42.188l4.688-4.688L25 32.812Zm-12.5 0c-.781 0-1.563-.313-2.188-.938l-4.687-4.688C5 26.563 4.687 25.782 4.687 25c0-.781.313-1.563.938-2.188l4.688-4.687c.624-.625 1.406-.938 2.187-.938.781 0 1.563.313 2.188.938l4.687 4.688c.625.625.938 1.406.938 2.187 0 .781-.313 1.563-.938 2.188l-4.688 4.687c-.624.625-1.406.938-2.187.938Zm0-12.5L7.812 25l4.688 4.688L17.188 25 12.5 20.312Z" fill="#FDFDFD"/></svg>