<svg width="50" height="50" fill="none" xmlns="http://www.w3.org/2000/svg"><path d="M43.833 25.27c.292 0 .563.126.792.355l2.667 2.667a1.108 1.108 0 0 1 0 1.604l-2.084 2.083-4.27-4.27 2.083-2.084c.229-.23.52-.354.812-.354Zm-4.104 3.647L44 33.187 31.375 45.834h-4.292v-4.291L39.73 28.917ZM20.833 4.167h8.334a4.167 4.167 0 0 1 4.166 4.166V12.5h8.334a4.167 4.167 0 0 1 4.166 4.167l-4.166 4.166v-4.166H8.333v22.916h14.584v4.167H8.333a4.167 4.167 0 0 1-4.166-4.167V16.667A4.167 4.167 0 0 1 8.333 12.5h8.334V8.333a4.167 4.167 0 0 1 4.166-4.166Zm8.334 8.333V8.333h-8.334V12.5h8.334Z" fill="#FDFDFD"/></svg>