<svg width="50" height="50" fill="none" xmlns="http://www.w3.org/2000/svg"><path d="M4.167 43.75c-.59 0-1.086-.2-1.486-.6-.4-.4-.599-.894-.598-1.483 0-.59.2-1.086.6-1.486.4-.4.895-.6 1.484-.598h41.666c.59 0 1.086.2 1.486.6.4.4.6.895.598 1.484 0 .59-.2 1.085-.6 1.485-.4.4-.895.6-1.484.598H4.167Zm4.166-6.25c-1.145 0-2.127-.408-2.943-1.225-.817-.817-1.225-1.797-1.223-2.942V10.417c0-1.146.408-2.127 1.225-2.944.816-.817 1.797-1.224 2.941-1.223h33.334c1.146 0 2.127.408 2.944 1.225.816.817 1.224 1.797 1.222 2.942v22.916c0 1.146-.408 2.127-1.225 2.944-.816.817-1.797 1.224-2.941 1.223H8.333Zm0-4.167h33.334V10.417H8.333v22.916Z" fill="#FDFDFD"/></svg>