<svg width="40" height="40" fill="none" xmlns="http://www.w3.org/2000/svg"><g fill="#FDFDFD"><path d="M13.275 10.337a1.37 1.37 0 0 0-.895.176h-.023a6.848 6.848 0 0 0-1.669 1.372c-.4.462-.616.928-.673 1.378-.033.267-.01.537.068.792l.03.017a19.794 19.794 0 0 0 1.754 3.79 22.287 22.287 0 0 0 3.383 4.625l.04.056.063.047.039.045.046.04a22.607 22.607 0 0 0 4.637 3.4c1.925 1.048 3.093 1.543 3.795 1.75v.01c.205.063.392.092.58.092a2.684 2.684 0 0 0 1.607-.69c.541-.48 1-1.045 1.356-1.674v-.011c.335-.634.222-1.23-.261-1.635a20.215 20.215 0 0 0-3.135-2.25c-.747-.405-1.505-.16-1.812.25l-.655.826c-.337.41-.947.354-.947.354l-.016.01c-4.552-1.162-5.767-5.77-5.767-5.77s-.057-.627.365-.947l.82-.66c.393-.32.667-1.077.245-1.823a19.68 19.68 0 0 0-2.245-3.134 1.247 1.247 0 0 0-.733-.438l.003.002Zm7.692-2.004a.833.833 0 1 0 0 1.667c2.106 0 3.856.688 5.241 2.008a7.385 7.385 0 0 1 1.63 2.514c.365.938.532 1.94.489 2.943a.834.834 0 1 0 1.666.07 8.932 8.932 0 0 0-.601-3.617 9.072 9.072 0 0 0-2.007-3.09l-.017-.016c-1.718-1.642-3.891-2.479-6.401-2.479Z"/><path d="M20.908 11.073a.833.833 0 0 0 0 1.667h.029c1.52.108 2.626.615 3.401 1.447.795.856 1.207 1.921 1.175 3.238a.834.834 0 0 0 1.667.038c.04-1.728-.517-3.22-1.62-4.41v-.003c-1.128-1.21-2.677-1.85-4.54-1.975l-.028-.003-.084.001Z"/><path d="M20.877 13.865a.835.835 0 0 0-.683 1.399.835.835 0 0 0 .596.264c.697.037 1.142.247 1.422.529.281.283.491.738.53 1.45a.833.833 0 1 0 1.663-.089c-.053-1-.367-1.883-1.008-2.533-.645-.65-1.524-.967-2.52-1.02Z"/><path fill-rule="evenodd" clip-rule="evenodd" d="M11.778 3.973a36.917 36.917 0 0 1 16.107 0l.565.125a8.592 8.592 0 0 1 6.453 6.272 32.863 32.863 0 0 1 0 16.167 8.591 8.591 0 0 1-6.453 6.271l-.567.125a36.917 36.917 0 0 1-10.128.832l-4.422 3.957a1.25 1.25 0 0 1-2.066-.725l-.732-4.37a8.592 8.592 0 0 1-5.775-6.09 32.862 32.862 0 0 1 0-16.167 8.592 8.592 0 0 1 6.453-6.272l.565-.125ZM27.34 6.412a34.417 34.417 0 0 0-15.017 0l-.566.126a6.092 6.092 0 0 0-4.574 4.447 30.362 30.362 0 0 0 0 14.937 6.092 6.092 0 0 0 4.575 4.446l.15.034a1.25 1.25 0 0 1 .96 1.013l.49 2.93 3.12-2.792a1.25 1.25 0 0 1 .922-.316 34.44 34.44 0 0 0 9.94-.742l.565-.127a6.092 6.092 0 0 0 4.575-4.446 30.374 30.374 0 0 0 0-14.937 6.092 6.092 0 0 0-4.575-4.447l-.565-.126Z"/></g></svg>