<svg width="24" height="25" fill="none" xmlns="http://www.w3.org/2000/svg"><path d="M8.22 3.5h7.56C18.66 3.5 21 5.84 21 8.72v7.56a5.22 5.22 0 0 1-5.22 5.22H8.22C5.34 21.5 3 19.16 3 16.28V8.72A5.22 5.22 0 0 1 8.22 3.5Zm-.18 1.8A3.24 3.24 0 0 0 4.8 8.54v7.92a3.238 3.238 0 0 0 3.24 3.24h7.92a3.24 3.24 0 0 0 3.24-3.24V8.54a3.238 3.238 0 0 0-3.24-3.24H8.04Zm8.685 1.35a1.125 1.125 0 1 1 0 2.25 1.125 1.125 0 0 1 0-2.25ZM12 8a4.5 4.5 0 1 1 0 9 4.5 4.5 0 0 1 0-9Zm0 1.8a2.7 2.7 0 1 0 0 5.4 2.7 2.7 0 0 0 0-5.4Z" fill="#FDFDFD"/></svg>