<svg width="157" height="45" fill="none" xmlns="http://www.w3.org/2000/svg"><path fill="#D2D0D0" d="M0 0h157v45H0z"/><g clip-path="url(#a)"><path fill="#F5F5F5" d="M-130-16h1440v78H-130z"/><path d="M0 35.971V9.21l4.773 4.52v22.241H0ZM10.648 13.73l-4.512-4.7h22.688v4.701h-9.18v22.241h-4.956v-22.24h-4.04Z" fill="#125AA2"/><path d="M26.07 24.273v-4.255h15.973v4.255H26.07Z" fill="#1158A2"/><path d="M44.797 9.029V35.97h3.855V17.537l4.774 18.434h2.386l4.59-18.434V35.97h4.04V9.03H58.75l-4.223 16.484L50.488 9.03h-5.691Z" fill="#48A852"/><path fill-rule="evenodd" clip-rule="evenodd" d="M67.195 11.543 70.5 9.03h5.508l2.937 2.514V33.49l-2.937 2.481h-5.692l-3.12-2.481V11.543Zm4.04 1.74h4.038v18.612h-4.039V13.283Zm18.359-4.254H94V35.97h-9.363l-2.754-2.481V21.79l2.754-2.304h4.957V9.029Zm0 13.826h-4.04v9.217h4.04v-9.217Z" fill="#48A852"/></g><defs><clipPath id="a"><path fill="#fff" transform="translate(-130 -16)" d="M0 0h1440v4519H0z"/></clipPath></defs></svg>